Coordinates
version=1
nRows=13
nColumns=34
inDegrees=yes

Units are S.I. units (second, meters, Newtons, ...)
If the header above contains a line with 'inDegrees', this indicates whether rotational values are in degrees (yes) or radians (no).

endheader
time	pelvis_tilt	pelvis_list	pelvis_rotation	pelvis_tx	pelvis_ty	pelvis_tz	hip_flexion_l	hip_adduction_l	hip_rotation_l	hip_flexion_r	hip_adduction_r	hip_rotation_r	knee_angle_l_beta	knee_angle_r_beta	knee_angle_l	knee_angle_r	ankle_angle_l	ankle_angle_r	subtalar_angle_l	subtalar_angle_r	mtp_angle_l	mtp_angle_r	lumbar_ext	lumbar_bend	lumbar_rota	shoulder_flexion_r	shoulder_adduction_r	shoulder_rotation_r	elbow_flexion_r	shoulder_flexion_l	shoulder_adduction_l	shoulder_rotation_l	elbow_flexion_l
      0.41000000	     -4.13656827	     -0.76812540	     -1.70508880	      0.37553008	      0.87149635	     -0.27481234	     28.47870641	     -4.28883935	    -11.22251792	     -6.39124419	      5.21985965	     -9.06209621	      0.37485428	      0.07514979	    -21.47756822	     -4.30576597	      3.41962379	      5.25554795	      9.67883984	      5.99159938	    -15.78292242	     -7.39282298	     -4.43746347	     -0.32905409	      4.29958911	      6.27359777	     -6.99666014	     -0.17378681	     54.98936025	    -10.42479179	     -5.00635556	     -9.17277754	     29.05468009
      0.42000000	     -4.15175547	     -0.95361927	     -2.11315633	      0.38895822	      0.86879153	     -0.27473980	     28.40926898	     -4.28156028	    -11.38511831	     -7.44290547	      5.32904048	     -9.02930372	      0.30114847	      0.07350266	    -17.25453628	     -4.21139213	      3.70572491	      5.95122106	     10.64220389	      6.58647851	    -16.30542341	     -7.15507695	     -4.56479912	     -0.18160168	      4.19741139	      7.25707617	     -7.19745187	      0.48047772	     55.76328958	    -11.30647515	     -4.85578136	    -10.74599132	     29.15102009
      0.43000000	     -4.59333661	     -1.49043615	     -2.35443910	      0.40249420	      0.86520745	     -0.27485186	     28.95381830	     -4.58552700	    -11.11751462	     -8.01141578	      5.85252004	     -8.95893703	      0.23752616	      0.07386841	    -13.60924640	     -4.23234807	      3.96883547	      6.45666703	     11.28578045	      6.68715599	    -16.59955045	     -7.07867651	     -4.13916864	      0.42126084	      4.15551074	      7.90619603	     -7.39770172	      0.72858047	     56.72275511	    -11.97073737	     -4.81470843	    -11.18072889	     28.72416220
      0.44000000	     -4.81603777	     -1.83472389	     -2.71400720	      0.41632919	      0.86197607	     -0.27500267	     29.07647354	     -4.75076205	    -10.79212513	     -8.75307917	      6.07714023	     -8.72793011	      0.17641297	      0.07698355	    -10.10771871	     -4.41083239	      3.85824153	      6.99858190	     11.92147745	      7.04654641	    -17.07093923	     -6.98906188	     -3.93885932	      0.78933009	      4.35288427	      8.46943873	     -7.62203148	      1.05870845	     57.55410340	    -12.47180026	     -4.71642948	    -11.96824240	     28.31425433
      0.45000000	     -3.99453381	     -1.73107287	     -3.19949198	      0.43033806	      0.86007021	     -0.27511680	     27.95550849	     -4.47344713	    -10.88405637	    -10.60089797	      5.62895312	     -8.99669924	      0.12264537	      0.08127602	     -7.02706186	     -4.65677278	      3.81637027	      7.94926035	     11.69588724	      8.81350064	    -21.17683255	     -6.56157199	     -5.07921967	      0.52678615	      3.44532543	     10.27191858	     -7.50304021	      2.81475442	     57.28553092	    -13.85288083	     -4.08118382	    -16.08230180	     29.57085590
      0.46000000	     -3.98548326	     -1.90947482	     -3.71624475	      0.44453462	      0.85722021	     -0.27522756	     27.86607458	     -4.58797161	    -10.83966235	    -11.48123994	      5.52859350	     -8.56019262	      0.08294274	      0.08914220	     -4.75226903	     -5.10747178	      3.50415477	      8.48452180	     11.19820297	      9.32879731	    -22.25778460	     -6.49234004	     -5.14566832	      0.68979642	      3.84812139	     10.71204310	     -7.58091139	      2.77369480	     57.99962546	    -14.17676666	     -3.95567721	    -16.93983419	     29.23831180
      0.47000000	     -3.83537821	     -1.99608129	     -4.08347877	      0.45903543	      0.85465684	     -0.27555390	     27.69937547	     -4.57436280	    -10.72314326	    -12.48861666	      5.29841191	     -8.41981417	      0.05637968	      0.09823984	     -3.23031756	     -5.62872848	      3.29817193	      8.93909686	     10.52402090	     10.13894900	    -23.75470267	     -6.53536355	     -5.36427212	      0.74301356	      4.04884707	     11.13958036	     -7.55349223	      2.70692818	     58.58534742	    -14.48936199	     -3.86117142	    -17.78402510	     28.97072355
      0.48000000	     -3.80900176	     -2.11338635	     -4.37986353	      0.47365470	      0.85212308	     -0.27603091	     27.79191302	     -4.63124553	    -10.70279891	    -13.27978732	      5.10496047	     -8.15800418	      0.04412057	      0.10991119	     -2.52792236	     -6.29744726	      3.17994488	      9.10980415	     10.20567081	     10.51152469	    -24.14181118	     -6.52296932	     -5.38396675	      0.86218520	      4.26443240	     11.43236132	     -7.53207131	      2.63579356	     58.98386459	    -14.64537915	     -3.80193858	    -18.25112013	     28.45465036
      0.49000000	     -3.56670561	     -1.87392176	     -4.75588851	      0.48867374	      0.85014344	     -0.27649320	     27.64505658	     -4.34452834	    -10.89620835	    -14.25500219	      4.43856658	     -7.98878016	      0.04287595	      0.12273199	     -2.45661092	     -7.03202521	      2.87355178	      9.29012666	      9.02187576	     11.40930034	    -24.85720203	     -6.61149688	     -5.64537672	      0.53776486	      4.64017358	     11.51924827	     -7.39329266	      2.19614337	     59.48793448	    -14.72879533	     -3.78878179	    -18.82499537	     28.14248710
      0.50000000	     -3.36267941	     -1.58586949	     -4.95191156	      0.50392674	      0.84835636	     -0.27720372	     27.66417107	     -3.97797752	    -10.99240942	    -15.12363831	      3.74528909	     -7.98813991	      0.05472635	      0.13758470	     -3.13558889	     -7.88302281	      2.62366503	      9.13688292	      7.98585886	     12.09585431	    -25.34229887	     -6.69098030	     -5.81528792	      0.18029766	      4.88047533	     11.48216641	     -7.21394126	      1.70429561	     59.86070461	    -14.71048450	     -3.85335550	    -19.06747035	     27.72409890
      0.51000000	     -3.17550810	     -1.17191115	     -5.11090165	      0.51946676	      0.84684771	     -0.27804223	     27.75883943	     -3.49524709	    -11.10391889	    -15.89312204	      2.90841016	     -8.05894547	      0.07698210	      0.15445418	     -4.41074950	     -8.84957251	      2.22195881	      8.72040903	      6.83029388	     12.74502616	    -25.56082297	     -6.68412853	     -5.92295136	     -0.30561737	      5.17187162	     11.23998184	     -6.99548942	      1.04280005	     60.20663328	    -14.59014459	     -3.96470738	    -19.05181265	     27.25800188
      0.52000000	     -2.96643496	     -0.73426281	     -5.18080069	      0.53525784	      0.84561100	     -0.27896261	     27.92573336	     -3.00353732	    -11.30637374	    -16.63148617	      2.08106834	     -8.07172838	      0.10983165	      0.17257407	     -6.29288978	     -9.88776561	      1.88258896	      7.85192112	      6.04732921	     12.94148882	    -25.46759466	     -6.65754689	     -6.01012606	     -0.81958996	      5.20824502	     11.05577720	     -6.70881253	      0.64774400	     60.21608418	    -14.56336855	     -4.05849508	    -19.08611686	     26.91490970
      0.53000000	     -2.73634103	     -0.19209544	     -5.24220935	      0.55125130	      0.84473878	     -0.27990582	     28.04705563	     -2.42612385	    -11.29043852	    -17.28758054	      1.13377593	     -7.99664215	      0.14751576	      0.19317852	     -8.45203043	    -11.06831383	      1.31065041	      6.62185467	      5.40238882	     13.19772120	    -25.35085956	     -6.63427814	     -6.10807254	     -1.47039943	      5.23946456	     10.76110952	     -6.40212226	      0.29074237	     60.12853572	    -14.50316406	     -4.16876248	    -19.10079837	     26.69045692
